STARTFONT 2.1
FONT -Monotype-Bembo-Bold-R-Normal--10-100-72-72-P-51-iso8859-1
SIZE 10 72 72
FONTBOUNDINGBOX 13 12 -2 -3

STARTPROPERTIES 22
FOUNDRY "Monotype"
FAMILY_NAME "Bembo"
WEIGHT_NAME "Bold"
SLANT "R"
SETWIDTH_NAME "Normal"
ADD_STYLE_NAME ""
PIXEL_SIZE 10
POINT_SIZE 100
RESOLUTION_X 72
RESOLUTION_Y 72
SPACING "P"
AVERAGE_WIDTH 51
CHARSET_REGISTRY "iso8859"
CHARSET_ENCODING "1"
COPYRIGHT "Copyright (c) 1996 Monotype Typography Ltd."
CAP_HEIGHT 7
X_HEIGHT 4
WEIGHT 10
QUAD_WIDTH 6
DEFAULT_CHAR 32
FONT_DESCENT 3
FONT_ASCENT 9
ENDPROPERTIES

CHARS 191

STARTCHAR space
ENCODING 32
SWIDTH 333 0
DWIDTH 4 0
BBX 0 0 0 0
BITMAP
ENDCHAR

STARTCHAR exclam
ENCODING 33
SWIDTH 313 0
DWIDTH 3 0
BBX 2 6 0 0
BITMAP
C0
C0
C0
C0
00
C0
ENDCHAR

STARTCHAR quotedbl
ENCODING 34
SWIDTH 552 0
DWIDTH 6 0
BBX 3 3 1 3
BITMAP
A0
A0
A0
ENDCHAR

STARTCHAR numbersign
ENCODING 35
SWIDTH 668 0
DWIDTH 7 0
BBX 6 7 0 0
BITMAP
28
28
FC
50
FC
50
50
ENDCHAR

STARTCHAR dollar
ENCODING 36
SWIDTH 479 0
DWIDTH 5 0
BBX 4 8 0 -1
BITMAP
20
70
A0
60
30
B0
60
20
ENDCHAR

STARTCHAR percent
ENCODING 37
SWIDTH 896 0
DWIDTH 9 0
BBX 8 6 0 0
BITMAP
42
A4
48
12
25
42
ENDCHAR

STARTCHAR ampersand
ENCODING 38
SWIDTH 750 0
DWIDTH 8 0
BBX 7 6 1 0
BITMAP
30
50
66
D4
D8
6E
ENDCHAR

STARTCHAR quoteright
ENCODING 39
SWIDTH 313 0
DWIDTH 3 0
BBX 2 3 0 3
BITMAP
C0
40
80
ENDCHAR

STARTCHAR parenleft
ENCODING 40
SWIDTH 354 0
DWIDTH 4 0
BBX 3 9 1 -3
BITMAP
20
40
C0
C0
C0
C0
C0
40
20
ENDCHAR

STARTCHAR parenright
ENCODING 41
SWIDTH 354 0
DWIDTH 4 0
BBX 3 9 0 -3
BITMAP
80
40
60
60
60
60
60
40
80
ENDCHAR

STARTCHAR asterisk
ENCODING 42
SWIDTH 521 0
DWIDTH 5 0
BBX 5 4 0 2
BITMAP
20
F8
20
50
ENDCHAR

STARTCHAR plus
ENCODING 43
SWIDTH 667 0
DWIDTH 7 0
BBX 5 5 1 1
BITMAP
20
20
F8
20
20
ENDCHAR

STARTCHAR comma
ENCODING 44
SWIDTH 313 0
DWIDTH 3 0
BBX 2 3 0 -2
BITMAP
C0
40
80
ENDCHAR

STARTCHAR minus
ENCODING 45
SWIDTH 667 0
DWIDTH 7 0
BBX 5 1 1 3
BITMAP
F8
ENDCHAR

STARTCHAR period
ENCODING 46
SWIDTH 313 0
DWIDTH 3 0
BBX 2 1 0 0
BITMAP
C0
ENDCHAR

STARTCHAR slash
ENCODING 47
SWIDTH 531 0
DWIDTH 5 0
BBX 5 7 0 -1
BITMAP
08
10
10
20
40
40
80
ENDCHAR

STARTCHAR zero
ENCODING 48
SWIDTH 500 0
DWIDTH 5 0
BBX 5 6 0 0
BITMAP
70
D8
D8
D8
D8
70
ENDCHAR

STARTCHAR one
ENCODING 49
SWIDTH 500 0
DWIDTH 5 0
BBX 4 6 0 0
BITMAP
60
E0
60
60
60
F0
ENDCHAR

STARTCHAR two
ENCODING 50
SWIDTH 500 0
DWIDTH 5 0
BBX 4 6 0 0
BITMAP
60
B0
30
20
50
F0
ENDCHAR

STARTCHAR three
ENCODING 51
SWIDTH 500 0
DWIDTH 5 0
BBX 4 6 0 0
BITMAP
E0
30
60
30
30
E0
ENDCHAR

STARTCHAR four
ENCODING 52
SWIDTH 500 0
DWIDTH 5 0
BBX 5 6 0 0
BITMAP
30
70
B0
F8
30
30
ENDCHAR

STARTCHAR five
ENCODING 53
SWIDTH 500 0
DWIDTH 5 0
BBX 4 6 0 0
BITMAP
F0
80
E0
30
30
E0
ENDCHAR

STARTCHAR six
ENCODING 54
SWIDTH 500 0
DWIDTH 5 0
BBX 5 6 0 0
BITMAP
30
40
F0
D8
D8
70
ENDCHAR

STARTCHAR seven
ENCODING 55
SWIDTH 500 0
DWIDTH 5 0
BBX 5 6 0 0
BITMAP
F8
F0
10
20
20
40
ENDCHAR

STARTCHAR eight
ENCODING 56
SWIDTH 500 0
DWIDTH 5 0
BBX 5 6 0 0
BITMAP
70
D8
70
D8
D8
70
ENDCHAR

STARTCHAR nine
ENCODING 57
SWIDTH 500 0
DWIDTH 5 0
BBX 5 6 0 0
BITMAP
70
D8
D8
78
10
60
ENDCHAR

STARTCHAR colon
ENCODING 58
SWIDTH 313 0
DWIDTH 3 0
BBX 2 4 0 0
BITMAP
C0
00
00
C0
ENDCHAR

STARTCHAR semicolon
ENCODING 59
SWIDTH 313 0
DWIDTH 3 0
BBX 2 6 0 -2
BITMAP
C0
00
00
C0
40
80
ENDCHAR

STARTCHAR less
ENCODING 60
SWIDTH 667 0
DWIDTH 7 0
BBX 6 5 0 1
BITMAP
0C
30
C0
30
0C
ENDCHAR

STARTCHAR equal
ENCODING 61
SWIDTH 667 0
DWIDTH 7 0
BBX 5 3 1 2
BITMAP
F8
00
F8
ENDCHAR

STARTCHAR greater
ENCODING 62
SWIDTH 667 0
DWIDTH 7 0
BBX 6 5 0 1
BITMAP
C0
30
0C
30
C0
ENDCHAR

STARTCHAR question
ENCODING 63
SWIDTH 365 0
DWIDTH 4 0
BBX 3 6 1 0
BITMAP
C0
60
60
80
00
C0
ENDCHAR

STARTCHAR at
ENCODING 64
SWIDTH 927 0
DWIDTH 9 0
BBX 9 9 0 -2
BITMAP
1E00
2100
4E80
9280
A480
AD00
B600
4100
3E00
ENDCHAR

STARTCHAR A
ENCODING 65
SWIDTH 740 0
DWIDTH 7 0
BBX 7 6 0 0
BITMAP
18
18
2C
3C
46
EE
ENDCHAR

STARTCHAR B
ENCODING 66
SWIDTH 698 0
DWIDTH 7 0
BBX 6 6 0 0
BITMAP
F8
6C
78
6C
6C
F8
ENDCHAR

STARTCHAR C
ENCODING 67
SWIDTH 740 0
DWIDTH 7 0
BBX 5 6 1 0
BITMAP
78
C8
C0
C0
C8
78
ENDCHAR

STARTCHAR D
ENCODING 68
SWIDTH 823 0
DWIDTH 8 0
BBX 7 6 0 0
BITMAP
FC
66
66
66
66
FC
ENDCHAR

STARTCHAR E
ENCODING 69
SWIDTH 646 0
DWIDTH 6 0
BBX 6 6 0 0
BITMAP
FC
64
78
60
64
FC
ENDCHAR

STARTCHAR F
ENCODING 70
SWIDTH 594 0
DWIDTH 6 0
BBX 6 6 0 0
BITMAP
FC
64
70
60
60
F0
ENDCHAR

STARTCHAR G
ENCODING 71
SWIDTH 781 0
DWIDTH 8 0
BBX 7 6 1 0
BITMAP
7C
C4
C0
DE
CC
78
ENDCHAR

STARTCHAR H
ENCODING 72
SWIDTH 833 0
DWIDTH 8 0
BBX 8 6 0 0
BITMAP
F7
66
7E
66
66
F7
ENDCHAR

STARTCHAR I
ENCODING 73
SWIDTH 365 0
DWIDTH 4 0
BBX 4 6 0 0
BITMAP
F0
60
60
60
60
F0
ENDCHAR

STARTCHAR J
ENCODING 74
SWIDTH 344 0
DWIDTH 3 0
BBX 5 9 -2 -3
BITMAP
78
30
30
30
30
30
30
30
E0
ENDCHAR

STARTCHAR K
ENCODING 75
SWIDTH 740 0
DWIDTH 7 0
BBX 7 6 0 0
BITMAP
F6
68
70
78
6C
F6
ENDCHAR

STARTCHAR L
ENCODING 76
SWIDTH 604 0
DWIDTH 6 0
BBX 6 6 0 0
BITMAP
F0
60
60
60
64
FC
ENDCHAR

STARTCHAR M
ENCODING 77
SWIDTH 927 0
DWIDTH 9 0
BBX 9 6 0 0
BITMAP
E380
7700
7700
5B00
5B00
CB80
ENDCHAR

STARTCHAR N
ENCODING 78
SWIDTH 813 0
DWIDTH 8 0
BBX 8 6 0 0
BITMAP
E7
72
5A
4E
46
E2
ENDCHAR

STARTCHAR O
ENCODING 79
SWIDTH 844 0
DWIDTH 8 0
BBX 6 6 1 0
BITMAP
78
CC
CC
CC
CC
78
ENDCHAR

STARTCHAR P
ENCODING 80
SWIDTH 646 0
DWIDTH 6 0
BBX 6 6 0 0
BITMAP
F8
6C
6C
78
60
F0
ENDCHAR

STARTCHAR Q
ENCODING 81
SWIDTH 844 0
DWIDTH 8 0
BBX 7 9 1 -3
BITMAP
78
CC
CC
CC
CC
78
30
18
06
ENDCHAR

STARTCHAR R
ENCODING 82
SWIDTH 771 0
DWIDTH 8 0
BBX 8 6 0 0
BITMAP
F8
6C
6C
78
6C
F7
ENDCHAR

STARTCHAR S
ENCODING 83
SWIDTH 563 0
DWIDTH 6 0
BBX 4 6 1 0
BITMAP
70
D0
E0
70
B0
E0
ENDCHAR

STARTCHAR T
ENCODING 84
SWIDTH 729 0
DWIDTH 7 0
BBX 6 6 0 0
BITMAP
FC
B4
30
30
30
78
ENDCHAR

STARTCHAR U
ENCODING 85
SWIDTH 771 0
DWIDTH 8 0
BBX 8 6 0 0
BITMAP
F7
62
62
62
62
3C
ENDCHAR

STARTCHAR V
ENCODING 86
SWIDTH 750 0
DWIDTH 8 0
BBX 8 6 0 0
BITMAP
F7
62
34
34
18
18
ENDCHAR

STARTCHAR W
ENCODING 87
SWIDTH 1000 0
DWIDTH 10 0
BBX 11 6 0 0
BITMAP
EF60
6D40
3680
3680
1B00
1B00
ENDCHAR

STARTCHAR X
ENCODING 88
SWIDTH 802 0
DWIDTH 8 0
BBX 8 6 0 0
BITMAP
F7
64
38
1C
26
EF
ENDCHAR

STARTCHAR Y
ENCODING 89
SWIDTH 750 0
DWIDTH 8 0
BBX 8 6 0 0
BITMAP
F7
62
34
18
18
3C
ENDCHAR

STARTCHAR Z
ENCODING 90
SWIDTH 750 0
DWIDTH 8 0
BBX 6 6 1 0
BITMAP
FC
98
30
60
C4
FC
ENDCHAR

STARTCHAR bracketleft
ENCODING 91
SWIDTH 365 0
DWIDTH 4 0
BBX 3 9 1 -3
BITMAP
E0
C0
C0
C0
C0
C0
C0
C0
E0
ENDCHAR

STARTCHAR backslash
ENCODING 92
SWIDTH 531 0
DWIDTH 5 0
BBX 5 7 0 -1
BITMAP
80
40
40
20
10
10
08
ENDCHAR

STARTCHAR bracketright
ENCODING 93
SWIDTH 365 0
DWIDTH 4 0
BBX 3 9 0 -3
BITMAP
E0
60
60
60
60
60
60
60
E0
ENDCHAR

STARTCHAR asciicircum
ENCODING 94
SWIDTH 583 0
DWIDTH 6 0
BBX 5 4 0 3
BITMAP
20
50
50
88
ENDCHAR

STARTCHAR underscore
ENCODING 95
SWIDTH 500 0
DWIDTH 5 0
BBX 5 1 0 -2
BITMAP
F8
ENDCHAR

STARTCHAR quoteleft
ENCODING 96
SWIDTH 313 0
DWIDTH 3 0
BBX 1 3 1 3
BITMAP
80
80
80
ENDCHAR

STARTCHAR a
ENCODING 97
SWIDTH 479 0
DWIDTH 5 0
BBX 5 4 0 0
BITMAP
E0
30
F0
D8
ENDCHAR

STARTCHAR b
ENCODING 98
SWIDTH 573 0
DWIDTH 6 0
BBX 6 6 -1 0
BITMAP
E0
60
78
6C
6C
78
ENDCHAR

STARTCHAR c
ENCODING 99
SWIDTH 490 0
DWIDTH 5 0
BBX 4 4 0 0
BITMAP
70
D0
C0
70
ENDCHAR

STARTCHAR d
ENCODING 100
SWIDTH 573 0
DWIDTH 6 0
BBX 6 6 0 0
BITMAP
38
18
78
D8
D8
6C
ENDCHAR

STARTCHAR e
ENCODING 101
SWIDTH 479 0
DWIDTH 5 0
BBX 4 4 0 0
BITMAP
60
F0
C0
70
ENDCHAR

STARTCHAR f
ENCODING 102
SWIDTH 323 0
DWIDTH 3 0
BBX 5 6 -1 0
BITMAP
38
60
F0
60
60
F0
ENDCHAR

STARTCHAR g
ENCODING 103
SWIDTH 552 0
DWIDTH 6 0
BBX 5 7 0 -3
BITMAP
78
D0
60
F0
78
88
70
ENDCHAR

STARTCHAR h
ENCODING 104
SWIDTH 563 0
DWIDTH 6 0
BBX 7 6 -1 0
BITMAP
E0
60
78
6C
6C
EE
ENDCHAR

STARTCHAR i
ENCODING 105
SWIDTH 292 0
DWIDTH 3 0
BBX 4 6 -1 0
BITMAP
60
00
E0
60
60
F0
ENDCHAR

STARTCHAR j
ENCODING 106
SWIDTH 281 0
DWIDTH 3 0
BBX 3 9 -1 -3
BITMAP
60
00
E0
60
60
60
60
60
C0
ENDCHAR

STARTCHAR k
ENCODING 107
SWIDTH 542 0
DWIDTH 5 0
BBX 7 6 -1 0
BITMAP
E0
60
6C
78
6C
E6
ENDCHAR

STARTCHAR l
ENCODING 108
SWIDTH 271 0
DWIDTH 3 0
BBX 4 6 -1 0
BITMAP
E0
60
60
60
60
F0
ENDCHAR

STARTCHAR m
ENCODING 109
SWIDTH 927 0
DWIDTH 9 0
BBX 10 4 -1 0
BITMAP
FB00
6D80
6D80
EDC0
ENDCHAR

STARTCHAR n
ENCODING 110
SWIDTH 573 0
DWIDTH 6 0
BBX 7 4 -1 0
BITMAP
D8
6C
6C
EE
ENDCHAR

STARTCHAR o
ENCODING 111
SWIDTH 573 0
DWIDTH 6 0
BBX 5 4 0 0
BITMAP
70
D8
D8
70
ENDCHAR

STARTCHAR p
ENCODING 112
SWIDTH 573 0
DWIDTH 6 0
BBX 6 7 -1 -3
BITMAP
D8
6C
6C
78
60
60
F0
ENDCHAR

STARTCHAR q
ENCODING 113
SWIDTH 573 0
DWIDTH 6 0
BBX 6 7 0 -3
BITMAP
68
D8
D8
78
18
18
3C
ENDCHAR

STARTCHAR r
ENCODING 114
SWIDTH 396 0
DWIDTH 4 0
BBX 5 4 -1 0
BITMAP
E8
70
60
F0
ENDCHAR

STARTCHAR s
ENCODING 115
SWIDTH 375 0
DWIDTH 4 0
BBX 3 4 0 0
BITMAP
60
C0
60
C0
ENDCHAR

STARTCHAR t
ENCODING 116
SWIDTH 344 0
DWIDTH 3 0
BBX 3 5 0 0
BITMAP
40
E0
C0
C0
60
ENDCHAR

STARTCHAR u
ENCODING 117
SWIDTH 573 0
DWIDTH 6 0
BBX 7 4 -1 0
BITMAP
EC
6C
6C
36
ENDCHAR

STARTCHAR v
ENCODING 118
SWIDTH 521 0
DWIDTH 5 0
BBX 6 4 -1 0
BITMAP
EC
68
30
30
ENDCHAR

STARTCHAR w
ENCODING 119
SWIDTH 781 0
DWIDTH 8 0
BBX 9 4 -1 0
BITMAP
ED80
6D00
3600
3600
ENDCHAR

STARTCHAR x
ENCODING 120
SWIDTH 531 0
DWIDTH 5 0
BBX 5 4 0 0
BITMAP
D8
70
70
D8
ENDCHAR

STARTCHAR y
ENCODING 121
SWIDTH 521 0
DWIDTH 5 0
BBX 6 7 -1 -3
BITMAP
EC
68
38
30
10
20
60
ENDCHAR

STARTCHAR z
ENCODING 122
SWIDTH 510 0
DWIDTH 5 0
BBX 4 4 0 0
BITMAP
F0
60
C0
F0
ENDCHAR

STARTCHAR braceleft
ENCODING 123
SWIDTH 396 0
DWIDTH 4 0
BBX 3 9 0 -3
BITMAP
20
40
40
40
80
40
40
40
20
ENDCHAR

STARTCHAR bar
ENCODING 124
SWIDTH 566 0
DWIDTH 6 0
BBX 1 8 2 -2
BITMAP
80
80
80
80
80
80
80
80
ENDCHAR

STARTCHAR braceright
ENCODING 125
SWIDTH 396 0
DWIDTH 4 0
BBX 3 9 1 -3
BITMAP
80
40
40
40
20
40
40
40
80
ENDCHAR

STARTCHAR asciitilde
ENCODING 126
SWIDTH 521 0
DWIDTH 5 0
BBX 5 2 0 2
BITMAP
68
B0
ENDCHAR

STARTCHAR space
ENCODING 160
SWIDTH 333 0
DWIDTH 3 0
BBX 0 0 0 0
BITMAP
ENDCHAR

STARTCHAR exclamdown
ENCODING 161
SWIDTH 313 0
DWIDTH 3 0
BBX 2 7 0 -3
BITMAP
C0
00
C0
C0
C0
C0
C0
ENDCHAR

STARTCHAR cent
ENCODING 162
SWIDTH 490 0
DWIDTH 5 0
BBX 4 8 0 -2
BITMAP
20
20
70
A0
C0
70
40
40
ENDCHAR

STARTCHAR sterling
ENCODING 163
SWIDTH 833 0
DWIDTH 8 0
BBX 7 9 0 -3
BITMAP
0E
1A
10
30
30
F8
60
F2
9C
ENDCHAR

STARTCHAR currency
ENCODING 164
SWIDTH 667 0
DWIDTH 7 0
BBX 5 5 1 1
BITMAP
A8
50
88
50
A8
ENDCHAR

STARTCHAR yen
ENCODING 165
SWIDTH 500 0
DWIDTH 5 0
BBX 6 6 -1 0
BITMAP
EC
68
30
FC
30
78
ENDCHAR

STARTCHAR brokenbar
ENCODING 166
SWIDTH 566 0
DWIDTH 6 0
BBX 1 9 2 -3
BITMAP
80
80
80
80
00
80
80
80
80
ENDCHAR

STARTCHAR section
ENCODING 167
SWIDTH 469 0
DWIDTH 5 0
BBX 4 9 0 -3
BITMAP
30
40
A0
A0
90
50
50
20
C0
ENDCHAR

STARTCHAR dieresis
ENCODING 168
SWIDTH 333 0
DWIDTH 3 0
BBX 3 1 0 5
BITMAP
A0
ENDCHAR

STARTCHAR copyright
ENCODING 169
SWIDTH 750 0
DWIDTH 8 0
BBX 7 7 0 0
BITMAP
38
44
9A
A2
9A
44
38
ENDCHAR

STARTCHAR ordfeminine
ENCODING 170
SWIDTH 365 0
DWIDTH 4 0
BBX 3 4 0 2
BITMAP
C0
60
A0
60
ENDCHAR

STARTCHAR guillemotleft
ENCODING 171
SWIDTH 427 0
DWIDTH 4 0
BBX 4 4 0 0
BITMAP
50
A0
A0
50
ENDCHAR

STARTCHAR logicalnot
ENCODING 172
SWIDTH 667 0
DWIDTH 7 0
BBX 5 3 1 1
BITMAP
F8
08
08
ENDCHAR

STARTCHAR hyphen
ENCODING 173
SWIDTH 417 0
DWIDTH 4 0
BBX 4 1 0 2
BITMAP
F0
ENDCHAR

STARTCHAR registered
ENCODING 174
SWIDTH 750 0
DWIDTH 8 0
BBX 7 7 0 0
BITMAP
38
44
BA
B2
AA
44
38
ENDCHAR

STARTCHAR macron
ENCODING 175
SWIDTH 333 0
DWIDTH 3 0
BBX 3 1 0 5
BITMAP
E0
ENDCHAR

STARTCHAR degree
ENCODING 176
SWIDTH 396 0
DWIDTH 4 0
BBX 3 3 0 3
BITMAP
40
A0
40
ENDCHAR

STARTCHAR plusminus
ENCODING 177
SWIDTH 668 0
DWIDTH 7 0
BBX 5 6 1 0
BITMAP
20
20
F8
20
20
F8
ENDCHAR

STARTCHAR twosuperior
ENCODING 178
SWIDTH 313 0
DWIDTH 3 0
BBX 2 4 1 2
BITMAP
80
40
80
C0
ENDCHAR

STARTCHAR threesuperior
ENCODING 179
SWIDTH 313 0
DWIDTH 3 0
BBX 2 4 1 2
BITMAP
80
C0
40
80
ENDCHAR

STARTCHAR acute
ENCODING 180
SWIDTH 333 0
DWIDTH 3 0
BBX 2 3 1 3
BITMAP
40
80
80
ENDCHAR

STARTCHAR mu
ENCODING 181
SWIDTH 552 0
DWIDTH 6 0
BBX 5 6 1 -2
BITMAP
90
90
B0
D8
80
80
ENDCHAR

STARTCHAR paragraph
ENCODING 182
SWIDTH 542 0
DWIDTH 5 0
BBX 5 8 0 -2
BITMAP
78
E8
E8
68
28
28
28
28
ENDCHAR

STARTCHAR periodcentered
ENCODING 183
SWIDTH 313 0
DWIDTH 3 0
BBX 2 1 0 2
BITMAP
C0
ENDCHAR

STARTCHAR cedilla
ENCODING 184
SWIDTH 333 0
DWIDTH 3 0
BBX 3 3 0 -3
BITMAP
40
20
C0
ENDCHAR

STARTCHAR onesuperior
ENCODING 185
SWIDTH 313 0
DWIDTH 3 0
BBX 2 4 0 2
BITMAP
40
C0
40
40
ENDCHAR

STARTCHAR ordmasculine
ENCODING 186
SWIDTH 375 0
DWIDTH 4 0
BBX 3 4 0 2
BITMAP
40
A0
A0
40
ENDCHAR

STARTCHAR guillemotright
ENCODING 187
SWIDTH 427 0
DWIDTH 4 0
BBX 4 4 0 0
BITMAP
A0
50
50
A0
ENDCHAR

STARTCHAR onequarter
ENCODING 188
SWIDTH 823 0
DWIDTH 8 0
BBX 8 7 0 0
BITMAP
42
C4
48
52
26
4F
82
ENDCHAR

STARTCHAR onehalf
ENCODING 189
SWIDTH 823 0
DWIDTH 8 0
BBX 7 7 0 0
BITMAP
42
C4
48
54
22
44
86
ENDCHAR

STARTCHAR threequarters
ENCODING 190
SWIDTH 823 0
DWIDTH 8 0
BBX 8 7 0 0
BITMAP
82
C4
48
92
26
4F
82
ENDCHAR

STARTCHAR questiondown
ENCODING 191
SWIDTH 365 0
DWIDTH 4 0
BBX 3 6 0 -2
BITMAP
60
00
20
C0
C0
60
ENDCHAR

STARTCHAR Agrave
ENCODING 192
SWIDTH 740 0
DWIDTH 7 0
BBX 7 9 0 0
BITMAP
10
08
00
18
18
2C
3C
46
EE
ENDCHAR

STARTCHAR Aacute
ENCODING 193
SWIDTH 740 0
DWIDTH 7 0
BBX 7 9 0 0
BITMAP
08
10
00
18
18
2C
3C
46
EE
ENDCHAR

STARTCHAR Acircumflex
ENCODING 194
SWIDTH 740 0
DWIDTH 7 0
BBX 7 9 0 0
BITMAP
08
14
00
18
18
2C
3C
46
EE
ENDCHAR

STARTCHAR Atilde
ENCODING 195
SWIDTH 740 0
DWIDTH 7 0
BBX 7 9 0 0
BITMAP
14
28
00
18
18
2C
3C
46
EE
ENDCHAR

STARTCHAR Adieresis
ENCODING 196
SWIDTH 740 0
DWIDTH 7 0
BBX 7 8 0 0
BITMAP
14
00
18
18
2C
3C
46
EE
ENDCHAR

STARTCHAR Aring
ENCODING 197
SWIDTH 740 0
DWIDTH 7 0
BBX 7 9 0 0
BITMAP
10
28
10
18
18
2C
3C
46
EE
ENDCHAR

STARTCHAR AE
ENCODING 198
SWIDTH 896 0
DWIDTH 9 0
BBX 9 6 0 0
BITMAP
1F80
2C80
2E00
7C00
4C80
DF80
ENDCHAR

STARTCHAR Ccedilla
ENCODING 199
SWIDTH 740 0
DWIDTH 7 0
BBX 5 9 1 -3
BITMAP
78
C8
C0
C0
C8
78
20
10
60
ENDCHAR

STARTCHAR Egrave
ENCODING 200
SWIDTH 646 0
DWIDTH 6 0
BBX 6 9 0 0
BITMAP
20
10
00
FC
64
70
60
64
FC
ENDCHAR

STARTCHAR Eacute
ENCODING 201
SWIDTH 646 0
DWIDTH 6 0
BBX 6 9 0 0
BITMAP
08
10
00
FC
64
70
60
64
FC
ENDCHAR

STARTCHAR Ecircumflex
ENCODING 202
SWIDTH 646 0
DWIDTH 6 0
BBX 6 9 0 0
BITMAP
10
28
00
FC
64
70
60
64
FC
ENDCHAR

STARTCHAR Edieresis
ENCODING 203
SWIDTH 646 0
DWIDTH 6 0
BBX 6 8 0 0
BITMAP
28
00
FC
64
70
60
64
FC
ENDCHAR

STARTCHAR Igrave
ENCODING 204
SWIDTH 365 0
DWIDTH 4 0
BBX 4 9 0 0
BITMAP
40
20
00
F0
60
60
60
60
F0
ENDCHAR

STARTCHAR Iacute
ENCODING 205
SWIDTH 365 0
DWIDTH 4 0
BBX 4 9 0 0
BITMAP
20
40
00
F0
60
60
60
60
F0
ENDCHAR

STARTCHAR Icircumflex
ENCODING 206
SWIDTH 365 0
DWIDTH 4 0
BBX 4 9 0 0
BITMAP
20
50
00
F0
60
60
60
60
F0
ENDCHAR

STARTCHAR Idieresis
ENCODING 207
SWIDTH 365 0
DWIDTH 4 0
BBX 4 8 0 0
BITMAP
50
00
F0
60
60
60
60
F0
ENDCHAR

STARTCHAR Eth
ENCODING 208
SWIDTH 823 0
DWIDTH 8 0
BBX 7 6 0 0
BITMAP
FC
66
66
F6
66
FC
ENDCHAR

STARTCHAR Ntilde
ENCODING 209
SWIDTH 813 0
DWIDTH 8 0
BBX 8 9 0 0
BITMAP
14
28
00
E7
72
5A
4E
46
E2
ENDCHAR

STARTCHAR Ograve
ENCODING 210
SWIDTH 844 0
DWIDTH 8 0
BBX 6 9 1 0
BITMAP
20
10
00
78
CC
CC
CC
CC
78
ENDCHAR

STARTCHAR Oacute
ENCODING 211
SWIDTH 844 0
DWIDTH 8 0
BBX 6 9 1 0
BITMAP
10
20
00
78
CC
CC
CC
CC
78
ENDCHAR

STARTCHAR Ocircumflex
ENCODING 212
SWIDTH 844 0
DWIDTH 8 0
BBX 6 9 1 0
BITMAP
10
28
00
78
CC
CC
CC
CC
78
ENDCHAR

STARTCHAR Otilde
ENCODING 213
SWIDTH 844 0
DWIDTH 8 0
BBX 6 9 1 0
BITMAP
28
50
00
78
CC
CC
CC
CC
78
ENDCHAR

STARTCHAR Odieresis
ENCODING 214
SWIDTH 844 0
DWIDTH 8 0
BBX 6 8 1 0
BITMAP
28
00
78
CC
CC
CC
CC
78
ENDCHAR

STARTCHAR multiply
ENCODING 215
SWIDTH 667 0
DWIDTH 7 0
BBX 5 5 1 1
BITMAP
88
50
20
50
88
ENDCHAR

STARTCHAR Oslash
ENCODING 216
SWIDTH 844 0
DWIDTH 8 0
BBX 6 8 1 -1
BITMAP
04
78
DC
DC
EC
EC
78
80
ENDCHAR

STARTCHAR Ugrave
ENCODING 217
SWIDTH 771 0
DWIDTH 8 0
BBX 8 9 0 0
BITMAP
10
08
00
F7
62
62
62
62
3C
ENDCHAR

STARTCHAR Uacute
ENCODING 218
SWIDTH 771 0
DWIDTH 8 0
BBX 8 9 0 0
BITMAP
04
08
00
F7
62
62
62
62
3C
ENDCHAR

STARTCHAR Ucircumflex
ENCODING 219
SWIDTH 771 0
DWIDTH 8 0
BBX 8 9 0 0
BITMAP
08
14
00
F7
62
62
62
62
3C
ENDCHAR

STARTCHAR Udieresis
ENCODING 220
SWIDTH 771 0
DWIDTH 8 0
BBX 8 8 0 0
BITMAP
14
00
F7
62
62
62
62
3C
ENDCHAR

STARTCHAR Yacute
ENCODING 221
SWIDTH 750 0
DWIDTH 8 0
BBX 8 9 0 0
BITMAP
04
08
00
F7
62
34
18
18
3C
ENDCHAR

STARTCHAR Thorn
ENCODING 222
SWIDTH 646 0
DWIDTH 6 0
BBX 6 6 0 0
BITMAP
E0
78
6C
6C
78
F0
ENDCHAR

STARTCHAR germandbls
ENCODING 223
SWIDTH 563 0
DWIDTH 6 0
BBX 6 6 0 0
BITMAP
38
6C
78
6C
6C
D8
ENDCHAR

STARTCHAR agrave
ENCODING 224
SWIDTH 479 0
DWIDTH 5 0
BBX 5 7 0 0
BITMAP
40
20
00
E0
30
F0
D8
ENDCHAR

STARTCHAR aacute
ENCODING 225
SWIDTH 479 0
DWIDTH 5 0
BBX 5 7 0 0
BITMAP
10
20
00
E0
30
F0
D8
ENDCHAR

STARTCHAR acircumflex
ENCODING 226
SWIDTH 479 0
DWIDTH 5 0
BBX 5 7 0 0
BITMAP
20
50
00
E0
30
F0
D8
ENDCHAR

STARTCHAR atilde
ENCODING 227
SWIDTH 479 0
DWIDTH 5 0
BBX 5 7 0 0
BITMAP
50
A0
00
E0
30
F0
D8
ENDCHAR

STARTCHAR adieresis
ENCODING 228
SWIDTH 479 0
DWIDTH 5 0
BBX 5 6 0 0
BITMAP
50
00
E0
30
F0
D8
ENDCHAR

STARTCHAR aring
ENCODING 229
SWIDTH 479 0
DWIDTH 5 0
BBX 5 8 0 0
BITMAP
20
50
20
00
E0
30
F0
D8
ENDCHAR

STARTCHAR ae
ENCODING 230
SWIDTH 698 0
DWIDTH 7 0
BBX 6 4 0 0
BITMAP
F8
3C
F0
DC
ENDCHAR

STARTCHAR ccedilla
ENCODING 231
SWIDTH 490 0
DWIDTH 5 0
BBX 4 7 0 -3
BITMAP
70
D0
C0
70
20
10
60
ENDCHAR

STARTCHAR egrave
ENCODING 232
SWIDTH 479 0
DWIDTH 5 0
BBX 4 7 0 0
BITMAP
40
20
00
60
F0
C0
70
ENDCHAR

STARTCHAR eacute
ENCODING 233
SWIDTH 479 0
DWIDTH 5 0
BBX 4 7 0 0
BITMAP
10
20
00
60
F0
C0
70
ENDCHAR

STARTCHAR ecircumflex
ENCODING 234
SWIDTH 479 0
DWIDTH 5 0
BBX 4 7 0 0
BITMAP
20
50
00
60
F0
C0
70
ENDCHAR

STARTCHAR edieresis
ENCODING 235
SWIDTH 479 0
DWIDTH 5 0
BBX 4 6 0 0
BITMAP
50
00
60
F0
C0
70
ENDCHAR

STARTCHAR igrave
ENCODING 236
SWIDTH 292 0
DWIDTH 3 0
BBX 4 7 -1 0
BITMAP
40
20
00
E0
60
60
F0
ENDCHAR

STARTCHAR iacute
ENCODING 237
SWIDTH 292 0
DWIDTH 3 0
BBX 4 7 -1 0
BITMAP
20
40
00
E0
60
60
F0
ENDCHAR

STARTCHAR icircumflex
ENCODING 238
SWIDTH 292 0
DWIDTH 3 0
BBX 4 7 -1 0
BITMAP
40
A0
00
E0
60
60
F0
ENDCHAR

STARTCHAR idieresis
ENCODING 239
SWIDTH 292 0
DWIDTH 3 0
BBX 4 6 -1 0
BITMAP
A0
00
E0
60
60
F0
ENDCHAR

STARTCHAR eth
ENCODING 240
SWIDTH 563 0
DWIDTH 6 0
BBX 5 7 0 0
BITMAP
70
E0
30
78
D8
D8
70
ENDCHAR

STARTCHAR ntilde
ENCODING 241
SWIDTH 573 0
DWIDTH 6 0
BBX 7 7 -1 0
BITMAP
14
28
00
D8
6C
6C
EE
ENDCHAR

STARTCHAR ograve
ENCODING 242
SWIDTH 573 0
DWIDTH 6 0
BBX 5 7 0 0
BITMAP
40
20
00
70
D8
D8
70
ENDCHAR

STARTCHAR oacute
ENCODING 243
SWIDTH 573 0
DWIDTH 6 0
BBX 5 7 0 0
BITMAP
10
20
00
70
D8
D8
70
ENDCHAR

STARTCHAR ocircumflex
ENCODING 244
SWIDTH 573 0
DWIDTH 6 0
BBX 5 7 0 0
BITMAP
20
50
00
70
D8
D8
70
ENDCHAR

STARTCHAR otilde
ENCODING 245
SWIDTH 573 0
DWIDTH 6 0
BBX 5 7 0 0
BITMAP
28
50
00
70
D8
D8
70
ENDCHAR

STARTCHAR odieresis
ENCODING 246
SWIDTH 573 0
DWIDTH 6 0
BBX 5 6 0 0
BITMAP
50
00
70
D8
D8
70
ENDCHAR

STARTCHAR divide
ENCODING 247
SWIDTH 668 0
DWIDTH 7 0
BBX 5 5 1 1
BITMAP
20
00
F8
00
20
ENDCHAR

STARTCHAR oslash
ENCODING 248
SWIDTH 573 0
DWIDTH 6 0
BBX 5 6 0 -1
BITMAP
08
70
D8
D8
70
80
ENDCHAR

STARTCHAR ugrave
ENCODING 249
SWIDTH 573 0
DWIDTH 6 0
BBX 7 7 -1 0
BITMAP
20
10
00
EC
6C
6C
36
ENDCHAR

STARTCHAR uacute
ENCODING 250
SWIDTH 573 0
DWIDTH 6 0
BBX 7 7 -1 0
BITMAP
08
10
00
EC
6C
6C
36
ENDCHAR

STARTCHAR ucircumflex
ENCODING 251
SWIDTH 573 0
DWIDTH 6 0
BBX 7 7 -1 0
BITMAP
10
28
00
EC
6C
6C
36
ENDCHAR

STARTCHAR udieresis
ENCODING 252
SWIDTH 573 0
DWIDTH 6 0
BBX 7 6 -1 0
BITMAP
28
00
EC
6C
6C
36
ENDCHAR

STARTCHAR yacute
ENCODING 253
SWIDTH 521 0
DWIDTH 5 0
BBX 6 10 -1 -3
BITMAP
08
10
00
EC
68
38
30
10
20
60
ENDCHAR

STARTCHAR thorn
ENCODING 254
SWIDTH 573 0
DWIDTH 6 0
BBX 6 9 -1 -3
BITMAP
E0
60
78
6C
6C
78
60
60
F0
ENDCHAR

STARTCHAR ydieresis
ENCODING 255
SWIDTH 521 0
DWIDTH 5 0
BBX 6 9 -1 -3
BITMAP
28
00
EC
68
38
30
10
20
60
ENDCHAR
ENDFONT
